<mxfile host="65bd71144e">
    <diagram id="aFMf3kg4D1noTRi9Oqz4" name="Page-1">
        <mxGraphModel dx="1853" dy="1420" grid="1" gridSize="10" guides="1" tooltips="1" connect="1" arrows="1" fold="1" page="1" pageScale="1" pageWidth="850" pageHeight="1100" math="0" shadow="0">
            <root>
                <mxCell id="0"/>
                <mxCell id="1" parent="0"/>
                <mxCell id="2" value="" style="rounded=0;whiteSpace=wrap;html=1;" parent="1" vertex="1">
                    <mxGeometry x="90" y="150" width="360" height="500" as="geometry"/>
                </mxCell>
                <mxCell id="3" value="name" style="rounded=1;whiteSpace=wrap;html=1;fontColor=#a29a9a;" parent="1" vertex="1">
                    <mxGeometry x="145" y="210" width="250" height="40" as="geometry"/>
                </mxCell>
                <mxCell id="4" value="basic patient info" style="text;html=1;strokeColor=none;fillColor=none;align=center;verticalAlign=middle;whiteSpace=wrap;rounded=0;" parent="1" vertex="1">
                    <mxGeometry x="210" y="160" width="120" height="30" as="geometry"/>
                </mxCell>
                <mxCell id="5" value="age" style="rounded=1;whiteSpace=wrap;html=1;fontColor=#a29a9a;" parent="1" vertex="1">
                    <mxGeometry x="145" y="270" width="250" height="40" as="geometry"/>
                </mxCell>
                <mxCell id="6" value="address" style="rounded=1;whiteSpace=wrap;html=1;fontColor=#a29a9a;" parent="1" vertex="1">
                    <mxGeometry x="145" y="330" width="250" height="40" as="geometry"/>
                </mxCell>
                <mxCell id="7" value="other medical info" style="rounded=1;whiteSpace=wrap;html=1;fontColor=#a29a9a;" parent="1" vertex="1">
                    <mxGeometry x="145" y="390" width="250" height="40" as="geometry"/>
                </mxCell>
                <mxCell id="8" value="other medical info" style="rounded=1;whiteSpace=wrap;html=1;fontColor=#a29a9a;" parent="1" vertex="1">
                    <mxGeometry x="145" y="440" width="250" height="40" as="geometry"/>
                </mxCell>
                <mxCell id="9" value="other medical info" style="rounded=1;whiteSpace=wrap;html=1;fontColor=#a29a9a;" parent="1" vertex="1">
                    <mxGeometry x="145" y="490" width="250" height="40" as="geometry"/>
                </mxCell>
                <mxCell id="10" value="other medical info" style="rounded=1;whiteSpace=wrap;html=1;fontColor=#a29a9a;" parent="1" vertex="1">
                    <mxGeometry x="145" y="540" width="250" height="40" as="geometry"/>
                </mxCell>
                <mxCell id="11" value="Add" style="shape=hexagon;perimeter=hexagonPerimeter2;whiteSpace=wrap;html=1;fixedSize=1;" parent="1" vertex="1">
                    <mxGeometry x="225" y="590" width="90" height="50" as="geometry"/>
                </mxCell>
                <mxCell id="13" value="" style="rounded=0;whiteSpace=wrap;html=1;fontColor=#a29a9a;" parent="1" vertex="1">
                    <mxGeometry x="90" y="730" width="1200" height="770" as="geometry"/>
                </mxCell>
                <mxCell id="14" value="" style="endArrow=none;html=1;fontColor=#a29a9a;entryX=0;entryY=0.13;entryDx=0;entryDy=0;entryPerimeter=0;" parent="1" target="13" edge="1">
                    <mxGeometry width="50" height="50" relative="1" as="geometry">
                        <mxPoint x="1290" y="830" as="sourcePoint"/>
                        <mxPoint x="710" y="1080" as="targetPoint"/>
                    </mxGeometry>
                </mxCell>
                <mxCell id="15" value="&lt;font style=&quot;font-size: 35px;&quot; color=&quot;#f9f5f5&quot;&gt;Softwaer name&amp;nbsp;&lt;/font&gt;" style="text;html=1;align=center;verticalAlign=middle;resizable=0;points=[];autosize=1;strokeColor=none;fillColor=none;fontColor=#a29a9a;" parent="1" vertex="1">
                    <mxGeometry x="555" y="745" width="270" height="60" as="geometry"/>
                </mxCell>
                <mxCell id="16" value="" style="endArrow=none;html=1;fontSize=35;fontColor=#f9f5f5;exitX=0.208;exitY=1;exitDx=0;exitDy=0;exitPerimeter=0;" parent="1" source="13" edge="1">
                    <mxGeometry width="50" height="50" relative="1" as="geometry">
                        <mxPoint x="660" y="1120" as="sourcePoint"/>
                        <mxPoint x="340" y="830" as="targetPoint"/>
                    </mxGeometry>
                </mxCell>
                <mxCell id="17" value="patients list" style="text;html=1;strokeColor=none;fillColor=none;align=center;verticalAlign=middle;whiteSpace=wrap;rounded=0;" parent="1" vertex="1">
                    <mxGeometry x="160" y="890" width="105" height="30" as="geometry"/>
                </mxCell>
                <mxCell id="18" value="settings" style="text;html=1;strokeColor=none;fillColor=none;align=center;verticalAlign=middle;whiteSpace=wrap;rounded=0;" parent="1" vertex="1">
                    <mxGeometry x="160" y="930" width="105" height="30" as="geometry"/>
                </mxCell>
                <mxCell id="25" style="edgeStyle=none;html=1;" parent="1" source="19" target="2" edge="1">
                    <mxGeometry relative="1" as="geometry"/>
                </mxCell>
                <mxCell id="19" value="add patient" style="rounded=1;whiteSpace=wrap;html=1;" parent="1" vertex="1">
                    <mxGeometry x="1040" y="870" width="120" height="60" as="geometry"/>
                </mxCell>
                <mxCell id="27" style="edgeStyle=none;html=1;" parent="1" source="20" target="26" edge="1">
                    <mxGeometry relative="1" as="geometry"/>
                </mxCell>
                <mxCell id="20" value="" style="rounded=0;whiteSpace=wrap;html=1;fillColor=#60a917;fontColor=#ffffff;strokeColor=#2D7600;" parent="1" vertex="1">
                    <mxGeometry x="380" y="1191" width="830" height="60" as="geometry"/>
                </mxCell>
                <mxCell id="21" value="patients name and age" style="rounded=0;whiteSpace=wrap;html=1;fillColor=#a20025;fontColor=#ffffff;strokeColor=#6F0000;" parent="1" vertex="1">
                    <mxGeometry x="380" y="1050" width="830" height="60" as="geometry"/>
                </mxCell>
                <mxCell id="22" value="" style="rounded=0;whiteSpace=wrap;html=1;fillColor=#e3c800;fontColor=#000000;strokeColor=#B09500;" parent="1" vertex="1">
                    <mxGeometry x="380" y="1120" width="830" height="60" as="geometry"/>
                </mxCell>
                <mxCell id="23" value="search" style="rounded=1;whiteSpace=wrap;html=1;" parent="1" vertex="1">
                    <mxGeometry x="410" y="920" width="420" height="60" as="geometry"/>
                </mxCell>
                <mxCell id="24" value="all patients" style="text;html=1;strokeColor=none;fillColor=none;align=center;verticalAlign=middle;whiteSpace=wrap;rounded=0;" parent="1" vertex="1">
                    <mxGeometry x="480" y="870" width="60" height="30" as="geometry"/>
                </mxCell>
                <mxCell id="26" value="" style="rounded=0;whiteSpace=wrap;html=1;" parent="1" vertex="1">
                    <mxGeometry x="215" y="1660" width="1105" height="980" as="geometry"/>
                </mxCell>
                <mxCell id="28" value="" style="rounded=1;whiteSpace=wrap;html=1;" vertex="1" parent="1">
                    <mxGeometry x="280" y="1720" width="940" height="120" as="geometry"/>
                </mxCell>
                <mxCell id="29" value="hart rate plot" style="rounded=0;whiteSpace=wrap;html=1;" vertex="1" parent="1">
                    <mxGeometry x="290" y="1910" width="450" height="230" as="geometry"/>
                </mxCell>
                <mxCell id="30" value="temp plot" style="rounded=0;whiteSpace=wrap;html=1;" vertex="1" parent="1">
                    <mxGeometry x="790" y="1910" width="420" height="230" as="geometry"/>
                </mxCell>
                <mxCell id="31" value="&lt;br&gt;" style="rounded=0;whiteSpace=wrap;html=1;" vertex="1" parent="1">
                    <mxGeometry x="285" y="2260" width="450" height="230" as="geometry"/>
                </mxCell>
                <mxCell id="32" value="&lt;br&gt;" style="rounded=0;whiteSpace=wrap;html=1;" vertex="1" parent="1">
                    <mxGeometry x="775" y="2260" width="450" height="230" as="geometry"/>
                </mxCell>
            </root>
        </mxGraphModel>
    </diagram>
</mxfile>